<svg width="96" height="96" viewBox="0 0 96 96" fill="none" xmlns="http://www.w3.org/2000/svg">
<g clip-path="url(#clip0_56_498)">
<g opacity="0.75">
<path fill-rule="evenodd" clip-rule="evenodd" d="M26.8876 15.1946C26.353 13.7279 23.4442 13.5586 21.964 14.0981C18.2503 15.4517 19.2206 16.9359 19.5099 17.7297C19.7888 18.4947 22.8118 19.3259 24.292 18.7864C25.7722 18.2469 27.4222 16.6614 26.8876 15.1946Z" fill="#BCD3FF"/>
<path fill-rule="evenodd" clip-rule="evenodd" d="M64.3271 16.4449C64.8405 16.6024 65.3874 16.6189 65.9093 16.4931C68.1349 15.9572 74.324 14.4665 75.4826 14.1876C75.6052 14.1577 75.734 14.165 75.8525 14.2077C76.3695 14.3933 77.8864 14.9396 79.1268 15.3865C79.3874 15.4798 79.5596 15.7295 79.5541 16.0066C79.5492 16.2832 79.3685 16.5261 79.1048 16.6103C72.9139 18.5863 52.7828 25.0122 48.732 26.3051C48.2687 26.4528 47.77 26.4473 47.3097 26.2886C44.3919 25.282 33.281 21.4492 29.5568 20.1642C29.2693 20.0653 29.0453 19.8352 28.9544 19.5453C28.8628 19.2553 28.9147 18.9391 29.0935 18.6931C29.6863 17.877 30.4676 16.8026 30.829 16.3051C30.9578 16.1281 31.1433 15.9999 31.3551 15.9432C33.4727 15.3718 45.2313 12.1982 47.5887 11.5622C47.8573 11.4895 48.1411 11.4944 48.4079 11.5762C50.6335 12.2568 61.3263 15.5275 64.3271 16.4449ZM56.7676 18.5832C57.046 18.4996 57.2364 18.2426 57.2352 17.9514C57.234 17.6609 57.0411 17.4057 56.7621 17.3245C54.0012 16.5212 49.4072 15.1856 48.2638 14.8529C48.0917 14.8029 47.9086 14.8035 47.737 14.8548C46.5638 15.2039 41.7573 16.6354 39.1179 17.4216C38.8841 17.4912 38.7236 17.7061 38.7223 17.9496C38.7217 18.1938 38.8804 18.4099 39.1136 18.4813C41.7427 19.2864 46.5284 20.7527 47.7358 21.1226C47.9202 21.1787 48.1167 21.1794 48.3011 21.1238C49.4743 20.7716 54.0268 19.4055 56.7676 18.5832Z" fill="#BCD3FF"/>
<path fill-rule="evenodd" clip-rule="evenodd" d="M64.2015 65.227C63.8358 65.3621 63.4269 65.3096 63.107 65.0866C62.7871 64.8643 62.5961 64.4983 62.5961 64.1086V59.3894C62.5961 58.887 62.911 58.439 63.3829 58.2678L80.4161 52.1095C80.7775 51.9783 81.1798 52.0301 81.4966 52.2479C81.8134 52.4656 82.0063 52.8224 82.0136 53.2068L82.4922 77.137C82.5019 77.6341 82.2022 78.0854 81.7401 78.269L52.598 89.8347C52.2311 89.9809 51.8154 89.935 51.4888 89.7133C51.1616 89.491 50.9663 89.1217 50.9663 88.7268V43.2836C50.9663 42.7916 51.2685 42.3502 51.7269 42.1725L90.6907 27.0459C91.0564 26.9036 91.469 26.9508 91.7938 27.1718C92.1179 27.3929 92.3126 27.7595 92.3145 28.1524L92.5049 73.4448C92.5074 73.946 92.1954 74.3946 91.7254 74.5684L88.6867 75.6907C88.3199 75.8264 87.9097 75.7733 87.5892 75.5483C87.2687 75.324 87.0789 74.9561 87.0813 74.5684C87.0459 68.6646 86.886 43.87 86.8396 36.6373C86.8378 36.2877 86.6638 35.9617 86.3745 35.7642C86.0857 35.5675 85.7182 35.5255 85.3923 35.6514C79.2435 38.0232 59.7857 45.5301 57.366 46.4634C57.3409 46.5493 57.3275 46.6385 57.3275 46.7284V46.7297C57.3165 50.347 57.3165 74.3244 57.3165 80.1436C57.3165 80.3312 57.4087 80.5077 57.5631 80.6152C57.7176 80.7221 57.9147 80.7471 58.0905 80.6815L75.9033 74.0607C76.2445 73.9335 76.4716 73.6075 76.4716 73.2435V61.5198C76.4716 61.3315 76.3794 61.1558 76.2256 61.0482C76.0711 60.9413 75.8746 60.9157 75.6982 60.9813L64.2015 65.227Z" fill="#BCD3FF"/>
<path fill-rule="evenodd" clip-rule="evenodd" d="M38.8895 46.7618C36.7012 45.8665 27.6065 42.1462 25.1434 41.142C25.1392 41.1407 25.1349 41.1387 25.1312 41.1368C24.4854 40.86 24.0666 40.2251 24.0666 39.5226V35.9472C24.0666 35.4081 24.334 34.9043 24.7802 34.6026C25.2264 34.3002 25.7935 34.2392 26.2941 34.4393L44.2429 41.6162C44.8601 41.8629 45.2642 42.4597 45.2642 43.1242V88.0309C45.2642 88.5681 44.9986 89.0712 44.5542 89.3736C44.1099 89.6759 43.5446 89.7389 43.0447 89.5421L5.25465 74.6491C4.63386 74.4044 4.2261 73.8056 4.2261 73.1385V53.8384C4.2261 53.3117 4.48186 52.8178 4.9116 52.5128C5.34195 52.2085 5.89255 52.1318 6.38943 52.3069L19.0966 56.7802C19.7467 57.0091 20.1813 57.623 20.1813 58.3117V62.0832C20.1813 62.6079 19.9274 63.1005 19.5001 63.4055C19.0728 63.7105 18.5246 63.7899 18.0284 63.6187L10.3651 60.98C10.3218 60.9649 10.2735 60.9721 10.2357 60.999C10.1985 61.0259 10.1765 61.0685 10.1765 61.1151V69.836C10.1765 70.0216 10.2931 70.1876 10.4677 70.2506L38.7143 80.4099C38.7583 80.4257 38.8065 80.4191 38.8444 80.3929C38.8828 80.366 38.9054 80.3227 38.9054 80.2761C38.9054 74.4851 38.9054 50.49 38.8895 46.7618Z" fill="#BCD3FF"/>
</g>
<g opacity="0.25">
<path fill-rule="evenodd" clip-rule="evenodd" d="M81.8484 18.3272C82.9619 17.9448 84.1707 17.9453 85.2827 18.3291C86.2141 18.6499 87.3823 19.0528 88.4162 19.4098C88.7991 19.5415 89.0576 19.8998 89.0618 20.3055C89.0663 20.7105 88.8153 21.074 88.4356 21.2142C79.3544 24.5619 48.8457 35.8088 48.8457 35.8088C48.2983 35.9989 47.7027 35.9963 47.1568 35.8023C47.1568 35.8023 15.9143 24.5132 6.72668 21.1929C6.34619 21.0556 6.09286 20.6941 6.09396 20.29C6.0953 19.8853 6.34957 19.5252 6.73071 19.3895C8.08059 18.9089 9.68547 18.3377 10.7732 17.9505C11.5888 17.6601 12.4787 17.6563 13.2967 17.9397C19.0964 19.9487 43.0677 28.2505 47.3452 29.7321C47.7694 29.8787 48.2309 29.8797 48.6551 29.7339C52.7991 28.3096 75.4013 20.5426 81.8484 18.3272Z" fill="#BCD3FF"/>
<path fill-rule="evenodd" clip-rule="evenodd" d="M64.0115 13.8783C64.8358 14.1242 65.7078 14.1644 66.5513 13.9961C67.5976 13.7877 69.0783 13.4922 70.1894 13.2706C70.3712 13.2344 70.5057 13.0796 70.5162 12.8945C70.5265 12.7089 70.4101 12.5404 70.2331 12.4843C65.1065 10.8518 48.6127 5.60044 48.6127 5.60044C48.2137 5.4615 47.7797 5.46337 47.3822 5.60515C47.3822 5.60515 32.769 10.1367 27.2855 11.8371C27.0407 11.9131 26.8776 12.1446 26.8887 12.4007C26.8997 12.6568 27.0819 12.8733 27.3328 12.9279C28.9354 13.2776 30.9611 13.7193 31.5062 13.8381C31.5986 13.8583 31.694 13.8551 31.7845 13.8285C33.178 13.4226 44.7205 10.0589 47.4315 9.26876C47.8026 9.16093 48.1968 9.16191 48.5674 9.27263C50.9968 9.99702 60.5561 12.8476 64.0115 13.8783Z" fill="#BCD3FF"/>
<path fill-rule="evenodd" clip-rule="evenodd" d="M10.2016 48.4237C10.2016 48.6313 10.1014 48.8266 9.93175 48.9475C9.76266 49.0683 9.54535 49.1001 9.3488 49.0329C8.05287 48.5879 5.63499 47.759 4.64916 47.4202C4.38851 47.3311 4.21393 47.0863 4.21393 46.811C4.21698 43.9957 4.23346 29.2241 4.23346 29.2241C4.23407 28.6882 4.49472 28.1858 4.93239 27.8763C5.37007 27.5674 5.93105 27.4893 6.43647 27.6682L19.1076 32.1438C19.7687 32.377 20.2106 33.0026 20.2094 33.7034L20.2058 37.4422C20.2052 37.9764 19.9469 38.4769 19.5117 38.787C19.0765 39.0965 18.5186 39.1764 18.0137 39.0025L10.3938 36.3697C10.3499 36.3545 10.3004 36.3612 10.2626 36.3887C10.2241 36.4155 10.2016 36.4595 10.2016 36.5065V48.4237Z" fill="#BCD3FF"/>
</g>
</g>
<defs>
<clipPath id="clip0_56_498">
<rect width="96" height="96" fill="white"/>
</clipPath>
</defs>
</svg>
