<svg width="100%" height="100%" viewBox="0 0 96 96" fill="currentColor" xmlns="http://www.w3.org/2000/svg">
<g clip-path="url(#clip0_56_498)">
<g opacity="0.75">
<path fill-rule="evenodd" clip-rule="evenodd" d="M38.8895 46.7618C36.7012 45.8665 27.6065 42.1462 25.1434 41.142C25.1392 41.1407 25.1349 41.1387 25.1312 41.1368C24.4854 40.86 24.0666 40.2251 24.0666 39.5226V35.9472C24.0666 35.4081 24.334 34.9043 24.7802 34.6026C25.2264 34.3002 25.7935 34.2392 26.2941 34.4393L44.2429 41.6162C44.8601 41.8629 45.2642 42.4597 45.2642 43.1242V88.0309C45.2642 88.5681 44.9986 89.0712 44.5542 89.3736C44.1099 89.6759 43.5446 89.7389 43.0447 89.5421L5.25465 74.6491C4.63386 74.4044 4.2261 73.8056 4.2261 73.1385V53.8384C4.2261 53.3117 4.48186 52.8178 4.9116 52.5128C5.34195 52.2085 5.89255 52.1318 6.38943 52.3069L19.0966 56.7802C19.7467 57.0091 20.1813 57.623 20.1813 58.3117V62.0832C20.1813 62.6079 19.9274 63.1005 19.5001 63.4055C19.0728 63.7105 18.5246 63.7899 18.0284 63.6187L10.3651 60.98C10.3218 60.9649 10.2735 60.9721 10.2357 60.999C10.1985 61.0259 10.1765 61.0685 10.1765 61.1151V69.836C10.1765 70.0216 10.2931 70.1876 10.4677 70.2506L38.7143 80.4099C38.7583 80.4257 38.8065 80.4191 38.8444 80.3929C38.8828 80.366 38.9054 80.3227 38.9054 80.2761C38.9054 74.4851 38.9054 50.49 38.8895 46.7618Z"/>
</g>
<g opacity="0.25">
<path fill-rule="evenodd" clip-rule="evenodd" d="M10.2016 48.4237C10.2016 48.6313 10.1014 48.8266 9.93175 48.9475C9.76266 49.0683 9.54535 49.1001 9.3488 49.0329C8.05287 48.5879 5.63499 47.759 4.64916 47.4202C4.38851 47.3311 4.21393 47.0863 4.21393 46.811C4.21698 43.9957 4.23346 29.2241 4.23346 29.2241C4.23407 28.6882 4.49472 28.1858 4.93239 27.8763C5.37007 27.5674 5.93105 27.4893 6.43647 27.6682L19.1076 32.1438C19.7687 32.377 20.2106 33.0026 20.2094 33.7034L20.2058 37.4422C20.2052 37.9764 19.9469 38.4769 19.5117 38.787C19.0765 39.0965 18.5186 39.1764 18.0137 39.0025L10.3938 36.3697C10.3499 36.3545 10.3004 36.3612 10.2626 36.3887C10.2241 36.4155 10.2016 36.4595 10.2016 36.5065V48.4237Z" />
</g>
</g>
<defs>
<clipPath id="clip0_56_498">
<rect width="96" height="96" />
</clipPath>
</defs>
</svg>
