<svg width="97" height="97" viewBox="0 0 97 97" fill="none" xmlns="http://www.w3.org/2000/svg">
<g clip-path="url(#clip0_490_36)">
<g opacity="0.75">
<path fill-rule="evenodd" clip-rule="evenodd" d="M80.7037 13.6571C75.157 13.6571 57.1015 13.3617 50.9439 13.3608C50.9242 13.3608 50.906 13.3591 50.8873 13.3528V13.3528C49.3771 12.9248 48.3977 11.943 48.3977 10.8567V2.487C48.3977 1.87347 48.7364 1.2895 49.3312 0.837922C49.7794 0.49769 50.3531 0.407796 50.9158 0.407702C61.6028 0.405911 82.5987 0.368877 94.0353 0.368896C95.4787 0.750383 96.4237 1.67325 96.4237 2.7008V93.8325C96.4237 94.6632 95.8026 95.4412 94.7633 95.9088C72.8919 95.9088 26.887 96.1694 3.0466 96.1694C1.59482 95.791 0.641235 94.865 0.641235 93.8334L0.641358 50.3445C0.641358 49.5301 1.23948 48.7663 2.24447 48.2947C11.0869 48.2947 22.7831 48.2947 31.7168 48.2947C33.2371 48.6486 34.2535 49.5979 34.2535 50.6629V58.1285C34.2535 60.0353 32.6684 60.5029 31.7168 60.5029C30.7652 60.5029 30.6031 60.5029 29.2187 60.5029L15.0881 60.6124C14.9869 60.589 14.8739 60.6002 14.7855 60.6418C14.6985 60.6834 14.6471 60.7492 14.6471 60.8213L14.3169 80.4066C14.3169 80.6936 14.5896 80.9503 14.9979 81.0477H81.1061C81.209 81.0722 81.3218 81.0619 81.4104 81.0214C81.5002 80.9798 81.5531 80.9129 81.5531 80.8408C81.5531 71.8859 80.7409 19.4222 80.7037 13.6571Z" fill="black"/>
</g>
<g opacity="0.25">
<path fill-rule="evenodd" clip-rule="evenodd" d="M14.4255 36.2458C14.4255 36.5668 14.1911 36.8688 13.7944 37.0557C10.7889 37.1878 4.84733 37.1878 1.48621 37.1878C0.876655 37.05 0.468384 36.6715 0.468384 36.2458C0.475517 31.8923 0.46846 2.89703 0.46846 2.89703C0.469887 2.06833 1.07944 1.29144 2.10298 0.812846C3.12653 0.335176 4.29085 0.49118 5.62041 0.491047H33.5606C35.1067 0.851658 36.1401 1.81906 36.1373 2.90275L36.0727 11.184C36.0713 12.0101 35.1094 13.3061 33.418 13.3061C27.8703 13.3061 20.8111 13.4486 14.7324 13.3795C14.6297 13.356 14.5139 13.3664 14.4255 13.4089C14.3355 13.4503 14.2829 13.5184 14.2829 13.591L14.4255 36.2458Z" fill="black"/>
</g>
</g>
<defs>
<clipPath id="clip0_490_36">
<rect width="96" height="96" fill="white" transform="translate(0.422852 0.344727)"/>
</clipPath>
</defs>
</svg>
