<svg width="100%" height="100%" viewBox="0 0 96 96" fill="currentColor" xmlns="http://www.w3.org/2000/svg">
<g clip-path="url(#clip0_56_498)">
<g opacity="0.75">
<path fill-rule="evenodd" clip-rule="evenodd" d="M64.2015 65.227C63.8358 65.3621 63.4269 65.3096 63.107 65.0866C62.7871 64.8643 62.5961 64.4983 62.5961 64.1086V59.3894C62.5961 58.887 62.911 58.439 63.3829 58.2678L80.4161 52.1095C80.7775 51.9783 81.1798 52.0301 81.4966 52.2479C81.8134 52.4656 82.0063 52.8224 82.0136 53.2068L82.4922 77.137C82.5019 77.6341 82.2022 78.0854 81.7401 78.269L52.598 89.8347C52.2311 89.9809 51.8154 89.935 51.4888 89.7133C51.1616 89.491 50.9663 89.1217 50.9663 88.7268V43.2836C50.9663 42.7916 51.2685 42.3502 51.7269 42.1725L90.6907 27.0459C91.0564 26.9036 91.469 26.9508 91.7938 27.1718C92.1179 27.3929 92.3126 27.7595 92.3145 28.1524L92.5049 73.4448C92.5074 73.946 92.1954 74.3946 91.7254 74.5684L88.6867 75.6907C88.3199 75.8264 87.9097 75.7733 87.5892 75.5483C87.2687 75.324 87.0789 74.9561 87.0813 74.5684C87.0459 68.6646 86.886 43.87 86.8396 36.6373C86.8378 36.2877 86.6638 35.9617 86.3745 35.7642C86.0857 35.5675 85.7182 35.5255 85.3923 35.6514C79.2435 38.0232 59.7857 45.5301 57.366 46.4634C57.3409 46.5493 57.3275 46.6385 57.3275 46.7284V46.7297C57.3165 50.347 57.3165 74.3244 57.3165 80.1436C57.3165 80.3312 57.4087 80.5077 57.5631 80.6152C57.7176 80.7221 57.9147 80.7471 58.0905 80.6815L75.9033 74.0607C76.2445 73.9335 76.4716 73.6075 76.4716 73.2435V61.5198C76.4716 61.3315 76.3794 61.1558 76.2256 61.0482C76.0711 60.9413 75.8746 60.9157 75.6982 60.9813L64.2015 65.227Z"/>
</g>
</g>
<defs>
<clipPath id="clip0_56_498">
<rect width="96" height="96" />
</clipPath>
</defs>
</svg>
