<svg width="97" height="97" viewBox="0 0 97 97" fill="none" xmlns="http://www.w3.org/2000/svg">
<g opacity="0.75">
<path fill-rule="evenodd" clip-rule="evenodd" d="M28.7049 54.6424C27.5243 54.3047 27.5243 53.7285 27.5243 52.8279V42.434C27.5243 41.273 28.212 40.9803 29.3425 40.9803C37.7288 40.8507 60.3664 40.9604 69.5146 40.978C70.6192 40.9802 71.5022 41.8662 71.4991 42.9708C71.4735 52.2091 71.3381 85.2853 71.5031 93.0652C71.5255 94.214 70.7419 95.9021 69.674 96.3264C54.6314 96.2107 15.8932 95.8827 1.85586 95.8827C1.09972 95.3689 0.648395 94.5155 0.648395 93.6029L0.648376 2.80585C0.648376 1.66886 1.34674 0.648816 2.40608 0.23816L92.4494 0.26554C93.2945 -0.0633076 94.248 0.0457698 94.9986 0.556489C95.7476 1.06744 96.1975 1.91463 96.2019 2.8226L96.6419 94.916C96.6477 96.0743 96.6419 95.9699 96.1996 96.3255C94.3508 96.3255 87.2607 96.3255 84.2002 96.3255C83.3024 96.3255 83.1083 96.3146 83.1083 95.4168V95.4168C83.1083 81.7731 82.5859 31.8101 82.5497 15.0954C82.5463 13.5133 82.1434 13.5341 81.4749 13.0777C80.8075 12.6231 79.9998 12.804 79.2051 12.817C63.2606 13.0777 22.0549 12.5794 15.6306 12.5794C15.5726 12.7779 15.3488 13.0577 15.3488 13.2655V13.2685C15.3234 21.6279 15.3234 66.3676 15.3234 79.8155C15.3234 80.249 15.5364 80.6569 15.8932 80.9053C16.2503 81.1524 16.7058 81.2102 17.112 81.0586L57.2765 81.4769C58.065 81.183 58.5898 80.4296 58.5898 79.5884V55.8309C58.5898 54.5865 57.722 54.5865 56.8025 54.5865C50.2822 54.5865 35.7388 54.6424 28.7049 54.6424Z" fill="black"/>
</g>
</svg>
