<svg width="100%" height="100%" viewBox="0 0 96 96" fill="currentColor" xmlns="http://www.w3.org/2000/svg">
<g clip-path="url(#clip0_56_498)">
<g opacity="0.75">
<path fill-rule="evenodd" clip-rule="evenodd" d="M26.8876 15.1946C26.353 13.7279 23.4442 13.5586 21.964 14.0981C18.2503 15.4517 19.2206 16.9359 19.5099 17.7297C19.7888 18.4947 22.8118 19.3259 24.292 18.7864C25.7722 18.2469 27.4222 16.6614 26.8876 15.1946Z"/>
<path fill-rule="evenodd" clip-rule="evenodd" d="M64.3271 16.4449C64.8405 16.6024 65.3874 16.6189 65.9093 16.4931C68.1349 15.9572 74.324 14.4665 75.4826 14.1876C75.6052 14.1577 75.734 14.165 75.8525 14.2077C76.3695 14.3933 77.8864 14.9396 79.1268 15.3865C79.3874 15.4798 79.5596 15.7295 79.5541 16.0066C79.5492 16.2832 79.3685 16.5261 79.1048 16.6103C72.9139 18.5863 52.7828 25.0122 48.732 26.3051C48.2687 26.4528 47.77 26.4473 47.3097 26.2886C44.3919 25.282 33.281 21.4492 29.5568 20.1642C29.2693 20.0653 29.0453 19.8352 28.9544 19.5453C28.8628 19.2553 28.9147 18.9391 29.0935 18.6931C29.6863 17.877 30.4676 16.8026 30.829 16.3051C30.9578 16.1281 31.1433 15.9999 31.3551 15.9432C33.4727 15.3718 45.2313 12.1982 47.5887 11.5622C47.8573 11.4895 48.1411 11.4944 48.4079 11.5762C50.6335 12.2568 61.3263 15.5275 64.3271 16.4449ZM56.7676 18.5832C57.046 18.4996 57.2364 18.2426 57.2352 17.9514C57.234 17.6609 57.0411 17.4057 56.7621 17.3245C54.0012 16.5212 49.4072 15.1856 48.2638 14.8529C48.0917 14.8029 47.9086 14.8035 47.737 14.8548C46.5638 15.2039 41.7573 16.6354 39.1179 17.4216C38.8841 17.4912 38.7236 17.7061 38.7223 17.9496C38.7217 18.1938 38.8804 18.4099 39.1136 18.4813C41.7427 19.2864 46.5284 20.7527 47.7358 21.1226C47.9202 21.1787 48.1167 21.1794 48.3011 21.1238C49.4743 20.7716 54.0268 19.4055 56.7676 18.5832Z"/>
</g>
<g opacity="0.25">
<path fill-rule="evenodd" clip-rule="evenodd" d="M81.8484 18.3272C82.9619 17.9448 84.1707 17.9453 85.2827 18.3291C86.2141 18.6499 87.3823 19.0528 88.4162 19.4098C88.7991 19.5415 89.0576 19.8998 89.0618 20.3055C89.0663 20.7105 88.8153 21.074 88.4356 21.2142C79.3544 24.5619 48.8457 35.8088 48.8457 35.8088C48.2983 35.9989 47.7027 35.9963 47.1568 35.8023C47.1568 35.8023 15.9143 24.5132 6.72668 21.1929C6.34619 21.0556 6.09286 20.6941 6.09396 20.29C6.0953 19.8853 6.34957 19.5252 6.73071 19.3895C8.08059 18.9089 9.68547 18.3377 10.7732 17.9505C11.5888 17.6601 12.4787 17.6563 13.2967 17.9397C19.0964 19.9487 43.0677 28.2505 47.3452 29.7321C47.7694 29.8787 48.2309 29.8797 48.6551 29.7339C52.7991 28.3096 75.4013 20.5426 81.8484 18.3272Z"/>
<path fill-rule="evenodd" clip-rule="evenodd" d="M64.0115 13.8783C64.8358 14.1242 65.7078 14.1644 66.5513 13.9961C67.5976 13.7877 69.0783 13.4922 70.1894 13.2706C70.3712 13.2344 70.5057 13.0796 70.5162 12.8945C70.5265 12.7089 70.4101 12.5404 70.2331 12.4843C65.1065 10.8518 48.6127 5.60044 48.6127 5.60044C48.2137 5.4615 47.7797 5.46337 47.3822 5.60515C47.3822 5.60515 32.769 10.1367 27.2855 11.8371C27.0407 11.9131 26.8776 12.1446 26.8887 12.4007C26.8997 12.6568 27.0819 12.8733 27.3328 12.9279C28.9354 13.2776 30.9611 13.7193 31.5062 13.8381C31.5986 13.8583 31.694 13.8551 31.7845 13.8285C33.178 13.4226 44.7205 10.0589 47.4315 9.26876C47.8026 9.16093 48.1968 9.16191 48.5674 9.27263C50.9968 9.99702 60.5561 12.8476 64.0115 13.8783Z"/>
</g>
</g>
<defs>
<clipPath id="clip0_56_498">
<rect width="96" height="96" />
</clipPath>
</defs>
</svg>
