<svg width="96" height="96" viewBox="0 0 96 96" fill="none" xmlns="http://www.w3.org/2000/svg">
<g opacity="0.75">
<path fill-rule="evenodd" clip-rule="evenodd" d="M62.7023 40.499C63.3725 41.1692 64.4103 41.262 65.1202 40.634C67.6351 38.4094 72.0402 33.7421 74.2783 31.3373C75.0446 30.514 76.3343 30.4768 77.1402 31.2614C78.3104 32.4006 79.93 33.9879 81.0406 35.1199C81.7432 35.836 81.7037 36.9298 80.9944 37.6392L48.8826 69.7509C48.1016 70.5319 46.8353 70.5319 46.0542 69.7509L25.2531 48.9498C24.472 48.1687 24.472 46.9024 25.2531 46.1213L45.3747 25.9998C46.1557 25.2187 47.4221 25.2187 48.2031 25.9998L62.7023 40.499ZM56.2106 49.292C56.9916 48.511 56.9916 47.2446 56.2106 46.4636L48.3059 38.559C47.5249 37.7779 46.2586 37.7779 45.4775 38.559L37.9206 46.1158C37.1396 46.8969 37.1396 48.1632 37.9206 48.9443L45.8253 56.8489C46.6063 57.6299 47.8726 57.6299 48.6537 56.8489L56.2106 49.292Z" fill="black"/>
<circle cx="17.2392" cy="36.6056" r="5.07498" fill="black"/>
</g>
<g opacity="0.25">
<path fill-rule="evenodd" clip-rule="evenodd" d="M86.4172 42.2432C87.1938 41.4942 88.4144 41.5232 89.1773 42.2861L94.0116 47.1204C94.7914 47.9002 94.8079 49.1491 94.0255 49.9264C82.2076 61.6675 47.8508 94.6177 47.8508 94.6177C47.2365 95.199 46.5681 95.191 45.9555 94.5978C45.9555 94.5978 11.2564 60.484 0.945557 50.3318C0.518551 49.9119 0.0213824 48.7507 0.945566 47.6865C2.51079 45.8842 3.63249 44.8158 5.71492 42.5104C6.63023 41.6225 7.09896 42.2496 8.01697 43.1162C14.5257 49.2589 41.95 75.9705 46.7504 80.5006C47.2265 80.9489 47.7444 80.9519 48.2205 80.5061C52.6121 76.3937 77.5597 50.7865 86.4172 42.2432Z" fill="black"/>
<path fill-rule="evenodd" clip-rule="evenodd" d="M62.6956 29.6309C63.4767 30.4119 64.7384 30.4073 65.5194 29.6262L69.4994 25.6463C70.2827 24.8629 70.2801 23.5921 69.4935 22.812L47.3127 0.814841C46.8649 0.390015 46.3778 0.395734 45.9317 0.829243C42.4143 4.34677 28.4196 18.3415 23.9122 22.8488C23.1312 23.6299 23.1388 24.8886 23.9198 25.6696L27.6366 29.3863C28.43 30.1797 29.7156 30.1713 30.4937 29.3629C34.0767 25.6403 43.4151 15.9969 45.8584 14.0566C46.2749 13.7269 46.7173 13.7299 47.1332 14.0685C49.5023 16.4375 59.0632 25.9985 62.6956 29.6309Z" fill="black"/>
</g>
</svg>
