<svg fill="currentColor" viewBox="0 0 24 24"  xmlns="http://www.w3.org/2000/svg">
    <path  fill-rule="evenodd" clip-rule="evenodd" d="M12.2428 1.56292C12.0918 1.47903 11.9082 1.47903 11.7572 1.56292L2.75718 6.56292C2.59845 6.65111 2.5 6.81842 2.5 7V17C2.5 17.1816 2.59845 17.3489 2.75718 17.4371L11.7572 22.4371C11.9082 22.521 12.0918 22.521 12.2428 22.4371L21.2428 17.4371C21.4016 17.3489 21.5 17.1816 21.5 17V7C21.5 6.81842 21.4016 6.65111 21.2428 6.56292L12.2428 1.56292ZM11.5 12.2942L3.5 7.84976V16.7058L11.5 21.1502V12.2942ZM20.5 16.7058L12.5 21.1502V12.2942L20.5 7.84976V16.7058ZM19.9704 7L12 11.428L4.02956 7L12 2.57198L19.9704 7Z"/>
    <path fill-rule="evenodd" clip-rule="evenodd" d="M11.5144 1.12584C11.8164 0.958052 12.1836 0.958052 12.4856 1.12584L21.4856 6.12584C21.8031 6.30221 22 6.63683 22 7V17C22 17.3632 21.8031 17.6978 21.4856 17.8742L12.4856 22.8742C12.1836 23.0419 11.8164 23.0419 11.5144 22.8742L2.51436 17.8742C2.19689 17.6978 2 17.3632 2 17V7C2 6.63683 2.19689 6.30221 2.51436 6.12584L11.5144 1.12584ZM3.5 7.84976V16.7058L11.5 21.1502V12.2942L3.5 7.84976ZM4 8.69951V16.4116L11 20.3005V12.5884L4 8.69951ZM20 16.4116L13 20.3005V12.5884L20 8.69951V16.4116ZM20.5 7.84976V16.7058L12.5 21.1502V12.2942L20.5 7.84976ZM19.9704 7L12 2.57198L4.02956 7L12 11.428L19.9704 7ZM18.9409 7L12 3.14396L5.05913 7L12 10.856L18.9409 7ZM11.7572 1.56292C11.9082 1.47903 12.0918 1.47903 12.2428 1.56292L21.2428 6.56292C21.4016 6.65111 21.5 6.81842 21.5 7V17C21.5 17.1816 21.4016 17.3489 21.2428 17.4371L12.2428 22.4371C12.0918 22.521 11.9082 22.521 11.7572 22.4371L2.75718 17.4371C2.59845 17.3489 2.5 17.1816 2.5 17V7C2.5 6.81842 2.59845 6.65111 2.75718 6.56292L11.7572 1.56292Z"/>
</svg>